<svg width="20" height="20" viewBox="0 0 20 20" fill="none" xmlns="http://www.w3.org/2000/svg">
<path opacity="0.6" d="M19.9113 16.4844C20.0414 16.7969 20.0284 17.1094 19.8722 17.4219C19.7161 17.7344 19.4688 17.9427 19.1304 18.0469L17.2564 18.6719C17.1263 18.724 16.9962 18.75 16.866 18.75C16.2934 18.75 15.903 18.4896 15.6948 17.9688L13.9379 13.75H8.43301C8.12068 13.75 7.83437 13.6458 7.57409 13.4375C7.33984 13.2031 7.2097 12.9297 7.18367 12.6172L6.24667 7.14844C6.19462 6.6276 6.32476 6.15885 6.63709 5.74219C6.94942 5.32552 7.35285 5.07812 7.84738 5C8.18574 4.97396 8.51109 5.02604 8.82343 5.15625C9.13576 5.26042 9.39604 5.44271 9.60426 5.70312C9.81248 5.96354 9.94262 6.26302 9.99468 6.60156L10.0337 6.875H13.118C13.4564 6.875 13.7427 7.00521 13.9769 7.26562C14.2372 7.5 14.3673 7.78646 14.3673 8.125C14.3673 8.46354 14.2372 8.76302 13.9769 9.02344C13.7427 9.25781 13.4564 9.375 13.118 9.375H10.5803L10.9707 11.25H14.7968C15.3694 11.25 15.7598 11.5104 15.9681 12.0312L17.6078 15.9375L18.3496 15.7031C18.5839 15.625 18.8051 15.612 19.0133 15.6641C19.2215 15.6901 19.4037 15.7812 19.5599 15.9375C19.7421 16.0938 19.8592 16.276 19.9113 16.4844ZM6.24667 18.125C7.2097 18.125 8.06862 17.8385 8.82343 17.2656C9.60426 16.6667 10.1378 15.9115 10.4241 15H12.3762C12.0899 16.4323 11.3742 17.6172 10.2289 18.5547C9.0837 19.5182 7.75629 20 6.24667 20C4.52884 20 3.05827 19.388 1.83496 18.1641C0.611653 16.9401 0 15.4688 0 13.75C0 12.2396 0.481514 10.9115 1.44454 9.76562C2.40757 8.61979 3.61786 7.90365 5.07542 7.61719L5.38776 9.45312C4.37267 9.66146 3.52677 10.1693 2.85004 10.9766C2.19935 11.7839 1.874 12.7083 1.874 13.75C1.874 14.9479 2.30346 15.9766 3.16238 16.8359C4.0213 17.6953 5.04939 18.125 6.24667 18.125ZM8.82343 3.20312C8.45904 3.56771 8.01656 3.75 7.49601 3.75C6.97545 3.75 6.53298 3.56771 6.16859 3.20312C5.8042 2.83854 5.62201 2.39583 5.62201 1.875C5.62201 1.35417 5.8042 0.911458 6.16859 0.546875C6.53298 0.182292 6.97545 0 7.49601 0C8.01656 0 8.45904 0.182292 8.82343 0.546875C9.18781 0.911458 9.37001 1.35417 9.37001 1.875C9.37001 2.39583 9.18781 2.83854 8.82343 3.20312Z" fill="black"/>
</svg>
