<svg width="6" height="10" viewBox="0 0 6 10" fill="none" xmlns="http://www.w3.org/2000/svg">
<path d="M4.93966 0.162037L0.181034 4.60648C0.0603443 4.71451 -4.23623e-07 4.84568 -4.37114e-07 5C-4.50605e-07 5.15432 0.0603442 5.28549 0.181034 5.39352L4.93965 9.83796C5.06034 9.94599 5.2069 10 5.37931 10C5.53448 10 5.68103 9.94599 5.81896 9.83796C5.93965 9.72994 6 9.59877 6 9.44444C6 9.30556 5.93965 9.17438 5.81896 9.05093L1.47414 5L5.81897 0.949074C5.93966 0.825617 6 0.694444 6 0.555556C6 0.401235 5.93966 0.270062 5.81897 0.162037C5.68103 0.0540123 5.53448 -4.06968e-08 5.37931 -5.42624e-08C5.2069 -6.93353e-08 5.06034 0.0540123 4.93966 0.162037Z" fill="#3948CA"/>
</svg>
