<svg width="18" height="18" viewBox="0 0 18 18" fill="none" xmlns="http://www.w3.org/2000/svg">
<path d="M17.0357 16.0714C17.3036 16.0714 17.5312 16.1652 17.7188 16.3527C17.9062 16.5402 18 16.7679 18 17.0357C18 17.3036 17.9062 17.5312 17.7188 17.7188C17.5312 17.9062 17.3036 18 17.0357 18H12.5357C12.2679 18 12.0402 17.9062 11.8527 17.7188C11.6652 17.5312 11.5714 17.3036 11.5714 17.0357C11.5714 16.7679 11.6652 16.5402 11.8527 16.3527C12.0402 16.1652 12.2679 16.0714 12.5357 16.0714H13.7009L12.375 12.5357H5.42411L3.97768 16.0714H5.46429C5.73214 16.0714 5.95982 16.1652 6.14732 16.3527C6.33482 16.5402 6.42857 16.7679 6.42857 17.0357C6.42857 17.3036 6.33482 17.5312 6.14732 17.7188C5.95982 17.9062 5.73214 18 5.46429 18H0.964286C0.696429 18 0.46875 17.9062 0.28125 17.7188C0.09375 17.5312 0 17.3036 0 17.0357C0 16.7679 0.09375 16.5402 0.28125 16.3527C0.46875 16.1652 0.696429 16.0714 0.964286 16.0714H1.92857L8.11607 0.602679C8.27679 0.200893 8.57143 0 9 0C9.45536 0 9.75 0.200893 9.88393 0.602679L15.7902 16.0714H17.0357ZM6.1875 10.6071H11.6518L8.95982 3.61607L6.1875 10.6071Z" fill="black"/>
</svg>
