<svg width="20" height="17" viewBox="0 0 20 17" fill="none" xmlns="http://www.w3.org/2000/svg">
<path d="M17.5 0C18.2031 0 18.7891 0.265625 19.2578 0.796875C19.7526 1.30016 20 1.92928 20 2.68421V14.3158C20 15.0707 19.7526 15.7138 19.2578 16.2451C18.7891 16.7484 18.2031 17 17.5 17H2.5C1.79688 17 1.19792 16.7484 0.703125 16.2451C0.234375 15.7138 0 15.0707 0 14.3158V2.68421C0 1.92928 0.234375 1.30016 0.703125 0.796875C1.19792 0.265625 1.79688 0 2.5 0H17.5ZM2.5 2.01316C2.31771 2.01316 2.16146 2.08306 2.03125 2.22286C1.92708 2.3347 1.875 2.48849 1.875 2.68421V3.60691L8.39844 9.43668C8.84115 9.85609 9.375 10.0658 10 10.0658C10.625 10.0658 11.1589 9.85609 11.6016 9.43668L18.125 3.60691V2.68421C18.125 2.48849 18.0599 2.3347 17.9297 2.22286C17.8255 2.08306 17.6823 2.01316 17.5 2.01316H2.5ZM17.5 14.9868C17.6823 14.9868 17.8255 14.9309 17.9297 14.8191C18.0599 14.6793 18.125 14.5115 18.125 14.3158V6.24918L12.8125 10.9885C12.0052 11.7155 11.0677 12.0789 10 12.0789C8.93229 12.0789 7.99479 11.7155 7.1875 10.9885L1.875 6.24918V14.3158C1.875 14.5115 1.92708 14.6793 2.03125 14.8191C2.16146 14.9309 2.31771 14.9868 2.5 14.9868H17.5Z" fill="#3948CA"/>
</svg>
