<svg width="78" height="120" viewBox="0 0 78 120" fill="none" xmlns="http://www.w3.org/2000/svg">
<path d="M39.0002 15.4839C43.308 15.4839 46.8002 12.0177 46.8002 7.74194C46.8002 3.46619 43.308 0 39.0002 0C34.6924 0 31.2002 3.46619 31.2002 7.74194C31.2002 12.0177 34.6924 15.4839 39.0002 15.4839Z" fill="#EC1E26"/>
<path d="M78 72H0V87.0001H78V72Z" fill="#28328C"/>
<path d="M46.8002 18H31.2002V69.0005H46.8002V18Z" fill="#28328C"/>
<path d="M22.06 18L0 69.0005H22.06H28.08V18H22.06Z" fill="#849DAA"/>
<path d="M55.9399 18L77.9999 69.0005H55.9399H49.9199V18H55.9399Z" fill="#849DAA"/>
<path d="M57.3687 100.783H66.9627V119.963H57.4467V116.903C56.8617 117.873 56.0037 118.619 54.9117 119.179C53.8197 119.739 52.6497 120 51.3627 120C48.9447 120 46.9947 119.067 45.3957 117.164C43.8357 115.261 43.0557 112.873 43.0557 109.925C43.0557 108.022 43.4067 106.306 44.1477 104.739C44.8887 103.209 45.9027 101.977 47.1897 101.082C48.4767 100.186 49.9197 99.7385 51.5187 99.7385C52.7667 99.7385 53.9367 99.9997 54.9507 100.559C55.9647 101.119 56.7837 101.865 57.3687 102.91V100.783ZM55.1067 106.977C54.3267 106.977 53.7027 107.239 53.1957 107.798C52.6887 108.358 52.4547 109.03 52.4547 109.888C52.4547 110.709 52.6887 111.38 53.1957 111.865C53.7027 112.351 54.3267 112.612 55.1457 112.612C55.9257 112.612 56.5887 112.351 57.0567 111.828C57.5247 111.306 57.7587 110.634 57.7587 109.776C57.7587 108.955 57.5247 108.283 57.0177 107.761C56.5107 107.239 55.8867 106.977 55.1067 106.977Z" fill="#28328C"/>
<path d="M68.4443 100.781H77.9993V119.961H68.4443V100.781Z" fill="#28328C"/>
<path d="M68.4443 94.7387C68.4443 93.47 68.9123 92.3879 69.8093 91.4551C70.7453 90.5595 71.8373 90.0745 73.1633 90.0745C74.4893 90.0745 75.6593 90.5222 76.5953 91.4551C77.5313 92.3506 77.9993 93.47 77.9993 94.7387C77.9993 96.0074 77.5313 97.1268 76.5953 98.0223C75.6593 98.9178 74.5283 99.3656 73.1633 99.3656C71.8373 99.3656 70.7063 98.9178 69.8093 98.0223C68.8733 97.1268 68.4443 96.0074 68.4443 94.7387Z" fill="#28328C"/>
<path d="M0 100.781H9.55501V119.961H0V100.781Z" fill="#28328C"/>
<path d="M11.0361 100.785H20.5131V103.584C21.4491 101.382 23.3991 99.7776 26.4802 99.7776C26.7532 99.7776 26.9872 99.7776 27.2212 99.8149V109.516C26.1682 108.77 25.1542 108.546 24.2181 108.546C23.0481 108.546 22.1511 108.882 21.5661 109.516C20.9421 110.151 20.6691 111.233 20.6691 112.763V119.964H11.0361V100.785Z" fill="#28328C"/>
<path d="M32.0973 90.0749V102.799C31.3953 101.829 30.5373 101.082 29.4843 100.523C29.2113 100.373 28.9383 100.262 28.6653 100.15V107.127C29.0163 106.941 29.4063 106.829 29.8353 106.829C30.6543 106.829 31.2783 107.09 31.7853 107.612C32.2533 108.135 32.5263 108.844 32.5263 109.665C32.5263 110.523 32.2923 111.157 31.7853 111.68C31.3173 112.165 30.6543 112.426 29.8353 112.426C29.4063 112.426 29.0163 112.351 28.6653 112.165L28.5873 112.09C28.3923 111.978 28.1973 111.866 28.0413 111.717L26.3643 110.56C25.6623 110.075 24.9993 109.851 24.2193 109.851C23.0883 109.851 22.7373 110.224 22.6203 110.336C22.4643 110.486 22.1133 111.045 22.1133 112.65V118.695C23.2833 119.478 24.6483 119.851 26.1303 119.851C27.4173 119.851 28.6653 119.515 29.7963 118.881C30.9663 118.247 31.8633 117.351 32.4873 116.269V119.851H41.6133V90.0002H32.0973V90.0749Z" fill="#28328C"/>
<path d="M0 94.7387C0 93.47 0.468001 92.3879 1.365 91.4551C2.301 90.5595 3.393 90.0745 4.71901 90.0745C6.04501 90.0745 7.21501 90.5222 8.15101 91.4551C9.08701 92.3506 9.55501 93.47 9.55501 94.7387C9.55501 96.0074 9.08701 97.1268 8.15101 98.0223C7.21501 98.9178 6.08401 99.3656 4.71901 99.3656C3.393 99.3656 2.262 98.9178 1.365 98.0223C0.468001 97.1268 0 96.0074 0 94.7387Z" fill="#28328C"/>
<path d="M9.78328 77.6786V78.2864H8.3358V83.1569H8.11202L7.58826 82.5963V80.9271H5.86938C5.77733 81.7117 5.66147 82.1041 5.5218 82.1041C5.40435 82.1041 5.1393 81.8687 4.72664 81.3979C4.31716 80.9271 4.11242 80.6132 4.11242 80.4563C4.11242 80.3764 4.17432 80.3365 4.29811 80.3365H5.12184C5.21072 80.1396 5.27738 79.8699 5.32182 79.5276C5.19167 79.5589 5.02502 79.5746 4.82187 79.5746C4.49492 79.5746 4.16162 79.4491 3.82197 79.198C3.4855 78.9469 3.31726 78.683 3.31726 78.4062C3.31726 78.2122 3.37757 78.0481 3.49819 77.914C3.61882 77.7799 3.77753 77.7129 3.97434 77.7129C4.51714 77.7129 4.98217 77.9297 5.36943 78.3634C5.75987 78.7971 5.95509 79.3121 5.95509 79.9085C5.95509 80.0654 5.94715 80.2081 5.93128 80.3365H7.58826V78.2864H6.11698L5.63131 77.6786H9.78328ZM5.33134 79.3136C5.33134 78.9426 5.25516 78.6502 5.10279 78.4362C4.95043 78.2222 4.74886 78.1152 4.49809 78.1152C4.3489 78.1152 4.22352 78.1665 4.12194 78.2693C4.02354 78.372 3.97434 78.4932 3.97434 78.633C3.97434 78.8413 4.06004 79.0154 4.23145 79.1552C4.40604 79.295 4.633 79.3649 4.91234 79.3649C5.04566 79.3649 5.18533 79.3478 5.33134 79.3136Z" fill="white"/>
<path d="M12.7801 77.6786V78.2864H11.3374V83.1569H11.1612L10.5899 82.562V78.2864H9.52806V77.6786H12.7801Z" fill="white"/>
<path fill-rule="evenodd" clip-rule="evenodd" d="M5.63131 77.6786L6.11698 78.2864H7.58826V80.3365H5.93128C5.93845 80.2785 5.944 80.2176 5.94793 80.1538C5.9527 80.0763 5.95509 79.9946 5.95509 79.9085C5.95509 79.3121 5.75987 78.7971 5.36943 78.3634C4.98217 77.9297 4.51714 77.7129 3.97434 77.7129C3.77753 77.7129 3.61882 77.7799 3.49819 77.914C3.37757 78.0481 3.31726 78.2122 3.31726 78.4062C3.31726 78.683 3.4855 78.9469 3.82197 79.198C4.16162 79.4491 4.49492 79.5746 4.82187 79.5746C4.9314 79.5746 5.03032 79.5701 5.11863 79.5609C5.19411 79.5531 5.26184 79.542 5.32182 79.5276C5.31309 79.5948 5.30351 79.6592 5.29307 79.7209C5.25034 79.9731 5.19326 80.1782 5.12184 80.3365H4.29811C4.17432 80.3365 4.11242 80.3764 4.11242 80.4563C4.11242 80.6132 4.31716 80.9271 4.72664 81.3979C5.1393 81.8687 5.40435 82.1041 5.5218 82.1041C5.66147 82.1041 5.77733 81.7117 5.86938 80.9271H7.58826V82.5963L8.11202 83.1569H8.3358V78.2864H10.5899V82.562L11.1612 83.1569H11.3374V78.2864H12.7801V77.6786H5.63131ZM11.5345 78.469V83.3395H11.0728L10.3927 82.6315V78.469H8.53295V83.3395H8.0219L7.39112 82.6643V81.1097H6.0452C6.00374 81.4266 5.95694 81.6774 5.9036 81.858C5.87294 81.9618 5.83678 82.0544 5.79089 82.1248C5.7508 82.1864 5.66616 82.2867 5.5218 82.2867C5.43126 82.2867 5.35129 82.2455 5.29694 82.212C5.23539 82.1741 5.16883 82.1218 5.09849 82.0593C4.95719 81.9338 4.78176 81.7505 4.57359 81.513L4.57312 81.5124C4.36589 81.2742 4.20616 81.0708 4.09724 80.9038C4.04278 80.8203 3.99879 80.7426 3.96794 80.6717C3.93803 80.6029 3.91528 80.5289 3.91528 80.4563C3.91528 80.3665 3.95408 80.276 4.04615 80.2166C4.12526 80.1655 4.21939 80.1538 4.29811 80.1538H4.98477C5.02451 80.0419 5.05942 79.9067 5.08867 79.7472C5.00546 79.754 4.91638 79.7572 4.82187 79.7572C4.43744 79.7572 4.06206 79.6091 3.699 79.3407L3.69829 79.3402C3.33689 79.0705 3.12012 78.7596 3.12012 78.4062C3.12012 78.1746 3.19326 77.9678 3.34673 77.7971C3.50668 77.6193 3.722 77.5303 3.97434 77.5303C4.58326 77.5303 5.10147 77.7769 5.5211 78.2467C5.94266 78.7151 6.15223 79.2721 6.15223 79.9085C6.15223 79.9938 6.14997 80.0756 6.14537 80.1538H7.39112V78.469H6.01763L5.24011 77.496H12.9773V78.469H11.5345ZM5.12961 79.1659C5.11191 78.8908 5.04373 78.6849 4.93822 78.5367C4.81787 78.3677 4.67488 78.2978 4.49809 78.2978C4.40519 78.2978 4.33268 78.327 4.26836 78.3915C4.2033 78.4599 4.17148 78.5375 4.17148 78.633C4.17148 78.7877 4.23185 78.9119 4.36106 79.0176C4.4926 79.1227 4.67035 79.1823 4.91234 79.1823C4.9817 79.1823 5.05409 79.1769 5.12961 79.1659ZM5.33134 79.3136C5.18533 79.3478 5.04566 79.3649 4.91234 79.3649C4.633 79.3649 4.40604 79.295 4.23145 79.1552C4.06004 79.0154 3.97434 78.8413 3.97434 78.633C3.97434 78.4932 4.02354 78.372 4.12194 78.2693C4.22352 78.1665 4.3489 78.1152 4.49809 78.1152C4.74886 78.1152 4.95043 78.2222 5.10279 78.4362C5.25516 78.6502 5.33134 78.9426 5.33134 79.3136Z" fill="white"/>
<path d="M25.5031 78.0106V78.622H24.0284V83.5222H23.9265L23.2668 82.9495V81.8084C22.675 82.1557 22.1753 82.3294 21.7678 82.3294C21.3539 82.3294 20.9512 82.1529 20.5599 81.7998C20.1718 81.4438 19.9778 81.0936 19.9778 80.7491C19.9778 80.3989 20.1945 80.1076 20.6278 79.875C21.0612 79.6396 21.4671 79.5219 21.8454 79.5219C22.0071 79.5219 22.1834 79.5607 22.3742 79.6382C22.565 79.7128 22.8625 79.9066 23.2668 80.2195V78.622H19.483V78.0106H25.5031ZM21.3749 80.3444L22.5294 81.4381C22.8625 81.2831 23.0695 81.1424 23.1504 81.0161C23.2345 80.8869 23.2733 80.719 23.2668 80.5123C22.9628 80.2511 22.6459 80.1205 22.316 80.1205C21.9926 80.1205 21.6789 80.1951 21.3749 80.3444ZM22.2917 81.5371L21.1372 80.4348C20.6715 80.6444 20.4386 80.8841 20.4386 81.1539C20.4386 81.3146 20.5243 81.4668 20.6957 81.6103C20.8671 81.751 21.0644 81.8213 21.2876 81.8213C21.5301 81.8213 21.8648 81.7266 22.2917 81.5371Z" fill="white"/>
<path d="M28.5515 78.0106V78.622H27.0817V83.5092H26.8634L26.3201 82.9581V78.622H25.2383V78.0106H26.8003C26.4737 77.3647 26.1228 76.8795 25.7476 76.5552C25.3725 76.2308 24.9731 76.0686 24.5494 76.0686C24.1969 76.0686 23.9317 76.1547 23.7538 76.327C23.576 76.4992 23.487 76.7575 23.487 77.102C23.487 77.392 23.5598 77.6948 23.7053 78.0106H23.1232C22.858 77.6546 22.7254 77.28 22.7254 76.8867C22.7254 76.4762 22.8774 76.1404 23.1814 75.8791C23.4822 75.6179 23.8654 75.4873 24.3311 75.4873C25.0491 75.4873 25.6538 75.7629 26.1454 76.314C26.4915 76.7016 26.8035 77.2671 27.0817 78.0106H28.5515Z" fill="white"/>
<path fill-rule="evenodd" clip-rule="evenodd" d="M23.7053 78.0106C23.6771 77.9492 23.6515 77.8883 23.6287 77.828C23.5343 77.5776 23.487 77.3356 23.487 77.102C23.487 76.7575 23.576 76.4992 23.7538 76.327C23.9317 76.1547 24.1969 76.0686 24.5494 76.0686C24.9731 76.0686 25.3725 76.2308 25.7476 76.5552C26.0866 76.8482 26.4057 77.2725 26.705 77.828C26.737 77.8873 26.7688 77.9482 26.8003 78.0106H23.7053ZM26.484 77.828C26.2047 77.3255 25.9133 76.9482 25.6131 76.6887C25.2663 76.3888 24.913 76.2512 24.5494 76.2512C24.2302 76.2512 24.0249 76.3287 23.8963 76.4532C23.7665 76.5789 23.6842 76.7837 23.6842 77.102C23.6842 77.3305 23.7343 77.5721 23.8385 77.828H26.484ZM22.7762 77.828H19.2858V78.8046H23.0697V79.8379C22.8174 79.6578 22.6102 79.5325 22.4522 79.4705C22.2437 79.386 22.0407 79.3393 21.8454 79.3393C21.4225 79.3393 20.9824 79.4708 20.5285 79.7173C20.0571 79.9703 19.7806 80.3129 19.7806 80.7491C19.7806 81.1612 20.0132 81.5553 20.4212 81.9295L20.4223 81.9306C20.8383 82.3059 21.2877 82.512 21.7678 82.512C22.152 82.512 22.5878 82.3776 23.0697 82.1296V83.0286L23.8486 83.7048H24.2256V78.8046H26.1229V83.0289L26.7764 83.6918H27.2788V78.8046H28.7487V77.828H27.2211C26.9505 77.1329 26.6443 76.5862 26.2974 76.1977C25.7716 75.6082 25.1127 75.3047 24.3311 75.3047C23.8225 75.3047 23.389 75.4487 23.047 75.7456C22.7 76.0439 22.5283 76.4295 22.5283 76.8867C22.5283 77.2145 22.6122 77.5287 22.7762 77.828ZM22.9998 77.828C23.0371 77.8894 23.0783 77.9502 23.1232 78.0106H19.483V78.622H23.2668V80.2195C23.198 80.1663 23.1323 80.1164 23.0697 80.0701C22.7644 79.8441 22.5325 79.7001 22.3742 79.6382C22.1834 79.5607 22.0071 79.5219 21.8454 79.5219C21.4671 79.5219 21.0612 79.6396 20.6278 79.875C20.1945 80.1076 19.9778 80.3989 19.9778 80.7491C19.9778 81.0936 20.1718 81.4438 20.5599 81.7998C20.9512 82.1529 21.3539 82.3294 21.7678 82.3294C22.1293 82.3294 22.5632 82.1928 23.0697 81.9195C23.1342 81.8847 23.1999 81.8477 23.2668 81.8084V82.9495L23.9265 83.5222H24.0284V78.622H26.3201V82.9581L26.8634 83.5092H27.0817V78.622H28.5515V78.0106H27.0817C26.8035 77.2671 26.4915 76.7016 26.1454 76.314C25.6538 75.7629 25.0491 75.4873 24.3311 75.4873C23.8654 75.4873 23.4822 75.6179 23.1814 75.8791C22.8774 76.1404 22.7254 76.4762 22.7254 76.8867C22.7254 77.2133 22.8169 77.5271 22.9998 77.828ZM21.1372 80.4348C20.6715 80.6444 20.4386 80.8841 20.4386 81.1539C20.4386 81.3146 20.5243 81.4668 20.6957 81.6103C20.8671 81.751 21.0644 81.8213 21.2876 81.8213C21.4929 81.8213 21.7642 81.7535 22.1015 81.6177C22.1627 81.5931 22.2262 81.5662 22.2917 81.5371L21.1372 80.4348ZM22.5294 81.4381C22.8625 81.2831 23.0695 81.1424 23.1504 81.0161C23.2345 80.8869 23.2733 80.719 23.2668 80.5123C22.9628 80.2511 22.6459 80.1205 22.316 80.1205C22.059 80.1205 21.8082 80.1676 21.5635 80.2618C21.5002 80.2862 21.4373 80.3137 21.3749 80.3444L22.5294 81.4381ZM21.7131 80.4036L22.5679 81.2133C22.6691 81.162 22.752 81.1139 22.8179 81.0691C22.9116 81.0054 22.9597 80.9559 22.9808 80.923L22.9815 80.9218C23.0316 80.8449 23.0648 80.7386 23.0697 80.5942C22.8143 80.3926 22.5639 80.3031 22.316 80.3031C22.1118 80.3031 21.9111 80.3362 21.7131 80.4036ZM21.9543 81.4772L21.0977 80.6594C20.7452 80.8409 20.6358 81.0123 20.6358 81.1539C20.6358 81.2473 20.6833 81.3535 20.8272 81.4742C20.9634 81.5858 21.1143 81.6387 21.2876 81.6387C21.4424 81.6387 21.6623 81.5894 21.9543 81.4772Z" fill="white"/>
<path d="M38.5677 78.0146V78.6271H37.0978V83.5222H36.8795L36.3362 82.9701V78.6271H35.2544V78.0146H36.5011C36.1066 77.6782 35.9093 77.3059 35.9093 76.8976C35.9093 76.4146 36.1907 76.0451 36.7534 75.7892C37.1997 75.5879 37.722 75.4873 38.3203 75.4873C39.2614 75.4873 40.12 75.6986 40.8962 76.1213C41.6756 76.5411 42.3709 77.1722 42.9821 78.0146H42.6523C42.0346 77.3677 41.3748 76.8832 40.673 76.5612C39.9713 76.2363 39.229 76.0738 38.4464 76.0738C37.8546 76.0738 37.4115 76.1615 37.1172 76.3369C36.8229 76.5094 36.6758 76.7682 36.6758 77.1132C36.6758 77.4209 36.7776 77.7214 36.9814 78.0146H38.5677Z" fill="white"/>
<path d="M44.323 78.0146V78.6271H42.8483V83.5222H42.6445L42.0866 82.9701V81.5382C41.5336 81.8775 41.0437 82.0472 40.6168 82.0472C40.2222 82.0472 39.8325 81.8746 39.4477 81.5296C39.066 81.1817 38.8752 80.8568 38.8752 80.5549C38.8752 80.3565 38.9626 80.1682 39.1372 79.9899C39.3118 79.8117 39.5706 79.6736 39.9134 79.5759C40.2594 79.4753 40.5521 79.4249 40.7914 79.4249C41.2215 79.4249 41.6533 79.6176 42.0866 80.0029V78.6271H38.3028V78.0146H44.323ZM42.0866 80.5118V80.2961C41.8085 80.115 41.5304 80.0244 41.2523 80.0244C40.8706 80.0244 40.468 80.1179 40.0443 80.3048C39.6207 80.4888 39.4089 80.6972 39.4089 80.9301C39.4089 81.1141 39.48 81.268 39.6223 81.3916C39.7646 81.5124 39.9312 81.5727 40.122 81.5727C40.3419 81.5727 40.717 81.4347 41.2474 81.1587C41.7778 80.8798 42.0575 80.6642 42.0866 80.5118Z" fill="white"/>
<path fill-rule="evenodd" clip-rule="evenodd" d="M36.9814 78.0146C36.7776 77.7214 36.6758 77.4209 36.6758 77.1132C36.6758 76.7682 36.8229 76.5094 37.1172 76.3369C37.4115 76.1615 37.8546 76.0738 38.4464 76.0738C39.229 76.0738 39.9713 76.2363 40.673 76.5612C41.3072 76.8522 41.9069 77.2758 42.4724 77.832C42.5328 77.8914 42.5927 77.9523 42.6523 78.0146H36.9814ZM42.1986 77.832C41.6856 77.3508 41.1477 76.9828 40.5855 76.7248L40.5849 76.7245C39.9104 76.4123 39.1984 76.2565 38.4464 76.2565C37.8691 76.2565 37.4712 76.3431 37.2239 76.4905L37.2226 76.4912C36.9901 76.6276 36.8729 76.8256 36.8729 77.1132C36.8729 77.3534 36.9436 77.5923 37.0921 77.832H42.1986ZM42.9821 78.0146H44.323V78.6271H42.8483V83.5222H42.6445L42.0866 82.9701V81.5382C42.02 81.5791 41.9543 81.6175 41.8895 81.6535C41.4165 81.9159 40.9922 82.0472 40.6168 82.0472C40.2222 82.0472 39.8325 81.8746 39.4477 81.5296C39.066 81.1817 38.8752 80.8568 38.8752 80.5549C38.8752 80.3565 38.9626 80.1682 39.1372 79.9899C39.3118 79.8117 39.5706 79.6736 39.9134 79.5759C40.2594 79.4753 40.5521 79.4249 40.7914 79.4249C41.1563 79.4249 41.5223 79.5636 41.8895 79.8408C41.9552 79.8904 42.0209 79.9444 42.0866 80.0029V78.6271H37.0978V83.5222H36.8795L36.3362 82.9701V78.6271H35.2544V78.0146H36.5011C36.4311 77.9549 36.3672 77.894 36.3096 77.832C36.0427 77.5449 35.9093 77.2334 35.9093 76.8976C35.9093 76.4146 36.1907 76.0451 36.7534 75.7892C37.1997 75.5879 37.722 75.4873 38.3203 75.4873C39.2614 75.4873 40.12 75.6986 40.8962 76.1213C41.6182 76.5102 42.2681 77.0804 42.8458 77.832C42.8917 77.8917 42.9371 77.9526 42.9821 78.0146ZM43.0865 77.832H44.5201V78.8097H43.0454V83.7048H42.559L41.8895 83.0422V81.8648C41.4363 82.1023 41.0108 82.2298 40.6168 82.2298C40.155 82.2298 39.7188 82.0268 39.3106 81.6608L39.3094 81.6598C38.9132 81.2986 38.6781 80.9293 38.6781 80.5549C38.6781 80.3019 38.791 80.0715 38.9912 79.8672C39.1969 79.6573 39.4907 79.5054 39.8548 79.4015C40.2109 79.298 40.5247 79.2423 40.7914 79.2423C41.1694 79.2423 41.5358 79.3712 41.8895 79.6102V78.8097H37.2949V83.7048H36.7925L36.139 83.0409V78.8097H35.0573V77.832H36.0575C35.8315 77.5484 35.7122 77.2365 35.7122 76.8976C35.7122 76.6211 35.7934 76.3706 35.9592 76.153C36.1236 75.9371 36.3637 75.763 36.6665 75.6253L36.6671 75.625C37.1452 75.4094 37.6981 75.3047 38.3203 75.3047C39.2947 75.3047 40.1879 75.5239 40.9957 75.9636C41.7802 76.3862 42.4763 77.0115 43.0865 77.832ZM40.128 80.4701C39.7127 80.6505 39.606 80.8142 39.606 80.9301C39.606 81.0644 39.6551 81.1694 39.7563 81.2577C39.8625 81.3475 39.9815 81.3901 40.122 81.3901C40.1942 81.3901 40.315 81.3659 40.4955 81.2995C40.6718 81.2346 40.8897 81.1354 41.1504 80.9997C41.4111 80.8626 41.6021 80.7452 41.7289 80.6474C41.7923 80.5986 41.8352 80.558 41.8622 80.5259C41.8781 80.5069 41.8858 80.494 41.8895 80.4867V80.394C41.6677 80.2656 41.456 80.207 41.2523 80.207C40.9059 80.207 40.5322 80.2918 40.1291 80.4696L40.128 80.4701ZM42.0866 80.2961V80.5118C42.0575 80.6642 41.7778 80.8798 41.2474 81.1587C40.717 81.4347 40.3419 81.5727 40.122 81.5727C39.9312 81.5727 39.7646 81.5124 39.6223 81.3916C39.48 81.268 39.4089 81.1141 39.4089 80.9301C39.4089 80.6972 39.6207 80.4888 40.0443 80.3048C40.468 80.1179 40.8706 80.0244 41.2523 80.0244C41.5304 80.0244 41.8085 80.115 42.0866 80.2961Z" fill="white"/>
<path d="M54.1951 78.0146V78.6271H52.7891V83.5222H52.5803L52.0606 82.9701V78.6271H51.0258V78.0146H52.2183C51.841 77.6782 51.6523 77.3059 51.6523 76.8976C51.6523 76.4146 51.9214 76.0451 52.4596 75.7892C52.8865 75.5879 53.3861 75.4873 53.9584 75.4873C54.8586 75.4873 55.6799 75.6986 56.4223 76.1213C57.1678 76.5411 57.8329 77.1722 58.4176 78.0146H58.1021C57.5112 77.3677 56.8802 76.8832 56.2089 76.5612C55.5376 76.2363 54.8277 76.0738 54.0791 76.0738C53.513 76.0738 53.0892 76.1615 52.8077 76.3369C52.5261 76.5094 52.3854 76.7682 52.3854 77.1132C52.3854 77.4209 52.4828 77.7214 52.6777 78.0146H54.1951Z" fill="white"/>
<path d="M59.7001 78.0146V78.6271H58.2895V83.5222H58.0946L57.561 82.9701V81.5382C57.032 81.8775 56.5634 82.0472 56.1551 82.0472C55.7777 82.0472 55.4049 81.8746 55.0368 81.5296C54.6717 81.1817 54.4892 80.8568 54.4892 80.5549C54.4892 80.3565 54.5728 80.1682 54.7398 79.9899C54.9069 79.8117 55.1543 79.6736 55.4822 79.5759C55.8132 79.4753 56.0932 79.4249 56.3221 79.4249C56.7335 79.4249 57.1465 79.6176 57.561 80.0029V78.6271H53.9417V78.0146H59.7001ZM57.561 80.5118V80.2961C57.295 80.115 57.0289 80.0244 56.7629 80.0244C56.3979 80.0244 56.0127 80.1179 55.6075 80.3048C55.2023 80.4888 54.9997 80.6972 54.9997 80.9301C54.9997 81.1141 55.0677 81.268 55.2038 81.3916C55.3399 81.5124 55.4992 81.5727 55.6818 81.5727C55.8921 81.5727 56.2509 81.4347 56.7583 81.1587C57.2656 80.8798 57.5332 80.6642 57.561 80.5118Z" fill="white"/>
<path fill-rule="evenodd" clip-rule="evenodd" d="M52.6777 78.0146C52.4828 77.7214 52.3854 77.4209 52.3854 77.1132C52.3854 76.7682 52.5261 76.5094 52.8077 76.3369C53.0892 76.1615 53.513 76.0738 54.0791 76.0738C54.8277 76.0738 55.5376 76.2363 56.2089 76.5612C56.8154 76.8522 57.3891 77.2758 57.93 77.832C57.9877 77.8914 58.0451 77.9523 58.1021 78.0146H52.6777ZM57.6619 77.832C57.1706 77.3496 56.6557 76.9812 56.1182 76.7234L56.1176 76.723C55.4741 76.4116 54.7955 76.2565 54.0791 76.2565C53.5286 76.2565 53.1515 76.3428 52.9177 76.4885L52.9164 76.4892C52.6965 76.624 52.5825 76.822 52.5825 77.1132C52.5825 77.354 52.6501 77.593 52.7911 77.832H57.6619ZM58.4176 78.0146H59.7001V78.6271H58.2895V83.5222H58.0946L57.561 82.9701V81.5382C57.4943 81.581 57.4286 81.6211 57.3639 81.6584C56.9149 81.9176 56.5119 82.0472 56.1551 82.0472C55.7777 82.0472 55.4049 81.8746 55.0368 81.5296C54.6717 81.1817 54.4892 80.8568 54.4892 80.5549C54.4892 80.3565 54.5728 80.1682 54.7398 79.9899C54.9069 79.8117 55.1543 79.6736 55.4822 79.5759C55.8132 79.4753 56.0932 79.4249 56.3221 79.4249C56.6683 79.4249 57.0155 79.5613 57.3639 79.8341C57.4296 79.8855 57.4953 79.9417 57.561 80.0029V78.6271H52.7891V83.5222H52.5803L52.0606 82.9701V78.6271H51.0258V78.0146H52.2183C52.1513 77.9549 52.0903 77.894 52.0352 77.832C51.7799 77.5449 51.6523 77.2334 51.6523 76.8976C51.6523 76.4146 51.9214 76.0451 52.4596 75.7892C52.8865 75.5879 53.3861 75.4873 53.9584 75.4873C54.8586 75.4873 55.6799 75.6986 56.4223 76.1213C57.113 76.5102 57.7346 77.0804 58.2872 77.832C58.3311 77.8917 58.3745 77.9526 58.4176 78.0146ZM58.5245 77.832H59.8973V78.8097H58.4867V83.7048H58.0065L57.3639 83.0399V81.8718C56.9353 82.1042 56.5312 82.2298 56.1551 82.2298C55.7073 82.2298 55.2871 82.024 54.8966 81.658L54.8954 81.6569C54.5154 81.2947 54.2921 80.9262 54.2921 80.5549C54.2921 80.3045 54.399 80.0751 54.5909 79.8702C54.7884 79.6595 55.071 79.5067 55.4213 79.4022C55.7627 79.2985 56.0645 79.2423 56.3221 79.2423C56.6822 79.2423 57.0297 79.3685 57.3639 79.6006V78.8097H52.9862V83.7048H52.4906L51.8634 83.0385V78.8097H50.8287V77.832H51.7871C51.5694 77.5476 51.4551 77.2356 51.4551 76.8976C51.4551 76.6229 51.5323 76.3735 51.6907 76.1561C51.848 75.9401 52.0784 75.7652 52.3696 75.6267L52.3702 75.6265C52.8297 75.4098 53.361 75.3047 53.9584 75.3047C54.8936 75.3047 55.7507 75.5247 56.5251 75.9655C57.276 76.3884 57.9415 77.0132 58.5245 77.832ZM55.6943 80.4687C55.3012 80.6472 55.1968 80.8099 55.1968 80.9301C55.1968 81.067 55.245 81.1729 55.341 81.2605C55.4416 81.3493 55.5522 81.3901 55.6818 81.3901C55.7475 81.3901 55.8608 81.3668 56.0331 81.3006C56.201 81.236 56.4088 81.137 56.658 81.0015C56.907 80.8646 57.0892 80.7474 57.21 80.65C57.2704 80.6014 57.3113 80.561 57.337 80.529C57.3529 80.5092 57.3604 80.4958 57.3639 80.4883V80.3916C57.1532 80.2642 56.9536 80.207 56.7629 80.207C56.4348 80.207 56.0797 80.291 55.6954 80.4682L55.6943 80.4687ZM57.561 80.2961V80.5118C57.5332 80.6642 57.2656 80.8798 56.7583 81.1587C56.2509 81.4347 55.8921 81.5727 55.6818 81.5727C55.4992 81.5727 55.3399 81.5124 55.2038 81.3916C55.0677 81.268 54.9997 81.1141 54.9997 80.9301C54.9997 80.6972 55.2023 80.4888 55.6075 80.3048C56.0127 80.1179 56.3979 80.0244 56.7629 80.0244C57.0289 80.0244 57.295 80.115 57.561 80.2961Z" fill="white"/>
<path d="M71.8123 78.6516H70.4258V83.5222H70.2433L69.7142 82.9529V81.6818L67.7667 82.9957L67.3152 82.5035L69.3494 81.211C68.7868 81.0997 68.3307 80.9542 67.9811 80.7744C67.6314 80.5947 67.3942 80.4121 67.2696 80.2266C67.1479 80.0383 67.0871 79.7929 67.0871 79.4905V78.6516H66.403V78.0438H71.8123V78.6516ZM69.7142 81.0526V78.6516H67.7895V79.422C67.7895 79.6845 67.8169 79.8885 67.8716 80.034C67.9294 80.1795 68.0343 80.3293 68.1863 80.4834C68.3414 80.6346 68.5618 80.7659 68.8477 80.8772C69.1335 80.9856 69.4223 81.0441 69.7142 81.0526Z" fill="white"/>
<path d="M74.683 78.0438V78.6516H73.301V83.5222H73.1322L72.5849 82.9272V78.6516H71.5678V78.0438H74.683Z" fill="white"/>
<path fill-rule="evenodd" clip-rule="evenodd" d="M70.6229 78.8342V83.7048H70.1529L69.5171 83.0207V82.0407L67.7349 83.2431L67.0234 82.4675L68.8738 81.2918C68.4897 81.1936 68.1594 81.075 67.8854 80.9341C67.5243 80.7485 67.2529 80.5474 67.1022 80.3231L67.1004 80.3204C66.9548 80.095 66.89 79.814 66.89 79.4905V78.8342H66.2058V77.8612H74.8801V78.8342H73.4981V83.7048H73.0412L72.3878 82.9945V78.8342H70.6229ZM72.5849 78.6516V82.9272L73.1322 83.5222H73.301V78.6516H74.683V78.0438H66.403V78.6516H67.0871V79.4905C67.0871 79.7929 67.1479 80.0383 67.2696 80.2266C67.3942 80.4121 67.6314 80.5947 67.9811 80.7744C68.2751 80.9256 68.6442 81.0525 69.0887 81.1552C69.1729 81.1747 69.2598 81.1933 69.3494 81.211L67.3152 82.5035L67.7667 82.9957L69.7142 81.6818V82.9529L70.2433 83.5222H70.4258V78.6516H72.5849ZM69.7142 78.6516V81.0526C69.6484 81.0507 69.5827 81.0462 69.5171 81.0392C69.2921 81.0151 69.069 80.9611 68.8477 80.8772C68.5618 80.7659 68.3414 80.6346 68.1863 80.4834C68.0343 80.3293 67.9294 80.1795 67.8716 80.034C67.8169 79.8885 67.7895 79.6845 67.7895 79.422V78.6516H69.7142ZM67.9867 78.8342V79.422C67.9867 79.6752 68.0134 79.8551 68.0572 79.9725C68.1037 80.0887 68.1915 80.2177 68.3305 80.3589C68.461 80.4857 68.6549 80.604 68.9232 80.7085C69.1208 80.7834 69.3187 80.8321 69.5171 80.8553V78.8342H67.9867Z" fill="white"/>
</svg>
