<svg width="16" height="22" viewBox="0 0 16 22" fill="none" xmlns="http://www.w3.org/2000/svg">
<path d="M2.33333 2.40625C3.88889 0.802083 5.77778 0 8 0C10.2222 0 12.1111 0.802083 13.6667 2.40625C15.2222 4.01042 16 5.95833 16 8.25C16 8.73698 15.9722 9.16667 15.9167 9.53906C15.8889 9.88281 15.7778 10.2982 15.5833 10.7852C15.4167 11.2721 15.25 11.6732 15.0833 11.9883C14.9444 12.3034 14.6389 12.8477 14.1667 13.6211C13.6944 14.3659 13.2778 14.9961 12.9167 15.5117C12.5556 16.0273 11.9444 16.9154 11.0833 18.1758C10.25 19.4362 9.5 20.5677 8.83333 21.5703C8.63889 21.8568 8.36111 22 8 22C7.63889 22 7.36111 21.8568 7.16667 21.5703C6.5 20.5677 5.73611 19.4362 4.875 18.1758C4.04167 16.9154 3.44444 16.0273 3.08333 15.5117C2.72222 14.9961 2.30556 14.3659 1.83333 13.6211C1.36111 12.8477 1.04167 12.3034 0.875 11.9883C0.736111 11.6732 0.569444 11.2721 0.375 10.7852C0.208333 10.2982 0.0972222 9.88281 0.0416667 9.53906C0.0138889 9.16667 0 8.73698 0 8.25C0 5.95833 0.777778 4.01042 2.33333 2.40625ZM8 19.1641C8.47222 18.4479 9.125 17.474 9.95833 16.2422C11.8194 13.5208 12.9583 11.7591 13.375 10.957C13.7917 10.1263 14 9.22396 14 8.25C14 6.53125 13.4167 5.07031 12.25 3.86719C11.0833 2.66406 9.66667 2.0625 8 2.0625C6.33333 2.0625 4.91667 2.66406 3.75 3.86719C2.58333 5.07031 2 6.53125 2 8.25C2 9.22396 2.20833 10.1263 2.625 10.957C3.04167 11.7591 4.18056 13.5208 6.04167 16.2422C6.84722 17.4453 7.5 18.4193 8 19.1641ZM5.625 5.84375C6.29167 5.15625 7.08333 4.8125 8 4.8125C8.91667 4.8125 9.69444 5.15625 10.3333 5.84375C11 6.5026 11.3333 7.30469 11.3333 8.25C11.3333 9.19531 11 10.0117 10.3333 10.6992C9.69444 11.3581 8.91667 11.6875 8 11.6875C7.08333 11.6875 6.29167 11.3581 5.625 10.6992C4.98611 10.0117 4.66667 9.19531 4.66667 8.25C4.66667 7.30469 4.98611 6.5026 5.625 5.84375ZM7.04167 9.23828C7.31944 9.49609 7.63889 9.625 8 9.625C8.36111 9.625 8.66667 9.49609 8.91667 9.23828C9.19444 8.95182 9.33333 8.6224 9.33333 8.25C9.33333 7.8776 9.19444 7.5625 8.91667 7.30469C8.66667 7.01823 8.36111 6.875 8 6.875C7.63889 6.875 7.31944 7.01823 7.04167 7.30469C6.79167 7.5625 6.66667 7.8776 6.66667 8.25C6.66667 8.6224 6.79167 8.95182 7.04167 9.23828Z" fill="white"/>
</svg>
