<svg width="20" height="20" viewBox="0 0 20 20" fill="none" xmlns="http://www.w3.org/2000/svg">
<path d="M19.948 14.8461C20.052 14.3775 20 13.922 19.7918 13.4795C19.5576 13.037 19.2062 12.7116 18.7378 12.5034L14.9122 10.8635C14.4958 10.6813 14.0664 10.6553 13.6239 10.7854C13.1815 10.8895 12.8172 11.1108 12.5309 11.4492L11.4379 12.7767C9.66819 11.7355 8.26285 10.3299 7.22186 8.55984L8.54912 7.46659C8.88744 7.18026 9.12167 6.81584 9.25179 6.37333C9.35589 5.93082 9.31685 5.50133 9.13468 5.08485L7.49512 1.25845C7.28692 0.789908 6.96161 0.451519 6.51919 0.24328C6.07677 0.00901036 5.62134 -0.0560645 5.15289 0.0480553L1.60052 0.867998C1.13207 0.972118 0.754717 1.2194 0.468445 1.60985C0.156147 1.97427 0 2.39075 0 2.85929C0 5.17595 0.455431 7.40151 1.3663 9.53597C2.27716 11.6444 3.50032 13.4665 5.03578 15.0023C6.54522 16.512 8.36695 17.7224 10.501 18.6334C12.609 19.5445 14.8211 20 17.1373 20C17.6057 20 18.0221 19.8438 18.3865 19.5315C18.7508 19.2451 18.998 18.8677 19.1282 18.3992L19.948 14.8461ZM18.1132 14.4166L17.2934 18.0087C17.2674 18.0868 17.2154 18.1258 17.1373 18.1258C14.3787 18.1258 11.8282 17.4491 9.48601 16.0955C7.14379 14.7159 5.29603 12.8548 3.94275 10.5121C2.56343 8.1694 1.87378 5.61846 1.87378 2.85929C1.87378 2.7812 1.91282 2.72914 1.99089 2.70311L5.5823 1.88317C5.5823 1.88317 5.59531 1.88317 5.62134 1.88317C5.69941 1.88317 5.75146 1.92221 5.77749 2.0003L7.41705 5.8267C7.44307 5.90479 7.43006 5.96987 7.37801 6.02193L5.46519 7.58372C5.07482 7.89608 4.98373 8.27351 5.19193 8.71602C6.54522 11.4231 8.57515 13.4535 11.2817 14.807C11.7241 15.0153 12.1015 14.9242 12.4138 14.5337L13.9753 12.6205C14.0273 12.5685 14.0924 12.5554 14.1705 12.5815L17.9961 14.2214C18.1002 14.2734 18.1392 14.3385 18.1132 14.4166Z" fill="white"/>
</svg>
