<svg width="23" height="19" viewBox="0 0 23 19" fill="none" xmlns="http://www.w3.org/2000/svg">
<path d="M0.805398 18.43H0V0.429993H0.805398V18.43ZM1.6108 18.4172H1.2017V0.429993H1.6108V18.4172ZM2.8125 18.4172H2.41619V0.429993H2.8125V18.4172ZM4.8196 18.4172H4.4233V0.429993H4.8196V18.4172ZM6.8267 18.4172H6.03409V0.429993H6.8267V18.4172ZM8.4375 18.4172H8.04119V0.429993H8.4375V18.4172ZM9.2429 18.4172H8.84659V0.429993H9.2429V18.4172ZM10.0483 18.4172H9.65199V0.429993H10.0483V18.4172ZM12.0554 18.4172H11.25V0.429993H12.0554V18.4172ZM14.0625 18.4172H13.2571V0.429993H14.0625V18.4172ZM15.6733 18.4172H14.8679V0.429993H15.6733V18.4172ZM17.2841 18.4172H16.4787V0.429993H17.2841V18.4172ZM18.4858 18.4172H17.6804V0.429993H18.4858V18.4172ZM20.902 18.4172H19.7003V0.429993H20.902V18.4172ZM21.7074 18.4172H21.2983V0.429993H21.7074V18.4172ZM22.9091 18.43H22.1037V0.429993H22.9091V18.43Z" fill="#151618"/>
</svg>
