<svg width="10" height="6" viewBox="0 0 10 6" fill="none" xmlns="http://www.w3.org/2000/svg">
<path d="M0.162037 0.861948L4.5 5.85284C4.60802 5.95095 4.7392 6 4.89352 6C5.04784 6 5.17901 5.95095 5.28704 5.85284L9.83796 0.861948C9.94599 0.76384 10 0.644709 10 0.504555C10 0.378416 9.94599 0.259285 9.83796 0.147162C9.72994 0.049054 9.59877 0 9.44444 0C9.30556 0 9.17438 0.049054 9.05093 0.147162L4.89352 4.80168L0.949074 0.147162C0.825617 0.049054 0.694444 0 0.555556 0C0.401235 0 0.270062 0.049054 0.162037 0.147162C0.0540123 0.259285 0 0.378416 0 0.504555C0 0.644709 0.0540123 0.76384 0.162037 0.861948Z" fill="black" fill-opacity="0.82"/>
</svg>
