<svg width="18" height="18" viewBox="0 0 18 18" fill="none" xmlns="http://www.w3.org/2000/svg">
<path d="M2.625 2.6625C4.4 0.8875 6.525 0 9 0C11.475 0 13.5875 0.8875 15.3375 2.6625C17.1125 4.4125 18 6.525 18 9C18 11.475 17.1125 13.6 15.3375 15.375C13.5875 17.125 11.475 18 9 18C6.525 18 4.4 17.125 2.625 15.375C0.875 13.6 0 11.475 0 9C0 6.525 0.875 4.4125 2.625 2.6625ZM9 16.2C10.975 16.2 12.6625 15.5 14.0625 14.1C15.4875 12.675 16.2 10.975 16.2 9C16.2 7.025 15.4875 5.3375 14.0625 3.9375C12.6625 2.5125 10.975 1.8 9 1.8V16.2Z" fill="#151618"/>
</svg>
