<svg width="21" height="21" viewBox="0 0 21 21" fill="none" xmlns="http://www.w3.org/2000/svg">
<g opacity="0.6">
<path d="M12.7268 0.7C12.7268 0.313401 13.0402 0 13.4268 0C14.8903 0 16.1716 0.766183 17.0839 1.91925C17.7429 2.75231 18.2246 3.80211 18.4705 4.96899L18.711 4.59078C18.9184 4.26454 19.351 4.16822 19.6772 4.37564C20.0035 4.58306 20.0998 5.01568 19.8924 5.34193L18.8782 6.93705C18.5786 7.4083 17.9734 7.58027 17.4708 7.33701L15.8328 6.54432C15.4848 6.37591 15.3393 5.95728 15.5077 5.6093C15.6761 5.26131 16.0947 5.11573 16.4427 5.28414L17.1696 5.63593C16.9952 4.50662 16.5659 3.52104 15.9859 2.78787C15.2761 1.89069 14.37 1.4 13.4268 1.4C13.0402 1.4 12.7268 1.0866 12.7268 0.7Z" fill="black"/>
<path fill-rule="evenodd" clip-rule="evenodd" d="M19.6419 19.7856C19.7138 19.7856 19.7622 19.7119 19.7337 19.6459L15.588 10.0593C15.5722 10.0227 15.5361 9.99902 15.4962 9.99902H14.0544C14.0138 9.99902 13.9771 10.0236 13.9618 10.0613L10.0588 19.6479C10.032 19.7137 10.0804 19.7856 10.1514 19.7856H11.5519C11.5933 19.7856 11.6304 19.7601 11.6453 19.7215L12.7227 16.9234C12.7376 16.8848 12.7747 16.8593 12.8161 16.8593H16.8137C16.8543 16.8593 16.8909 16.8839 16.9062 16.9215L18.0518 19.7234C18.0672 19.761 18.1038 19.7856 18.1444 19.7856H19.6419ZM14.7056 11.2055C14.7133 11.1691 14.7208 11.1325 14.7282 11.0958L14.73 11.0869C14.7063 11.2049 14.6812 11.3214 14.6546 11.4362C14.6722 11.36 14.6892 11.2831 14.7056 11.2055ZM14.6649 11.7652C14.6911 11.6652 14.838 11.6612 14.869 11.7599C14.9272 11.9458 14.9829 12.1093 15.0357 12.2503C15.1383 12.5196 15.5758 13.6177 16.3475 15.5433C16.3738 15.609 16.3256 15.681 16.2549 15.681H13.3431C13.2725 15.681 13.2241 15.6098 13.2501 15.5441L14.2917 12.914C14.4351 12.5514 14.5595 12.1684 14.6649 11.7652Z" fill="black"/>
<path d="M6.57493 20.0039C6.96153 20.0039 7.27493 19.6905 7.27493 19.3039C7.27493 18.9173 6.96153 18.6039 6.57493 18.6039C5.63172 18.6039 4.72563 18.1132 4.01585 17.216C3.43582 16.4828 3.00652 15.4973 2.83215 14.368L3.55905 14.7197C3.90704 14.8882 4.32567 14.7426 4.49408 14.3946C4.66249 14.0466 4.51691 13.628 4.16892 13.4596L2.53099 12.6669C2.02832 12.4236 1.42315 12.5956 1.12353 13.0668L0.109371 14.662C-0.0980503 14.9882 -0.00172636 15.4208 0.324518 15.6282C0.650762 15.8357 1.08338 15.7393 1.29081 15.4131L1.53126 15.0349C1.77715 16.2018 2.25884 17.2516 2.9179 18.0846C3.83012 19.2377 5.11145 20.0039 6.57493 20.0039Z" fill="black"/>
<path fill-rule="evenodd" clip-rule="evenodd" d="M10.0033 0.310937C10.0033 0.255709 9.95854 0.210938 9.90331 0.210938H5.2776C5.19335 0.210938 5.14686 0.308758 5.20007 0.374089L6.0604 1.43039C6.07939 1.45371 6.10786 1.46724 6.13794 1.46724H7.11593C7.17116 1.46724 7.21593 1.51201 7.21593 1.56724V3.21528C7.21593 3.67708 7.09374 4.00596 6.86657 4.22034C6.63893 4.43517 6.28894 4.55104 5.79787 4.55104C5.35474 4.55104 4.80916 4.42584 4.15869 4.16952C4.07683 4.13726 4.07545 4.02168 4.15381 3.98169C4.44589 3.83265 4.68193 3.65839 4.85919 3.45751C5.11744 3.16486 5.24675 2.82029 5.24675 2.42821C5.24675 1.76138 4.98952 1.2213 4.47516 0.817371C3.96812 0.410132 3.30407 0.210938 2.49269 0.210938C1.79679 0.210938 1.0746 0.35902 0.326816 0.652732C0.268544 0.67562 0.247408 0.747254 0.283922 0.798108L0.971514 1.75575C1.00073 1.79644 1.05554 1.80924 1.09975 1.78569L1.10071 1.78518C2.02511 1.29283 2.76317 1.05497 3.32092 1.05497C3.63199 1.05497 3.8911 1.13691 4.1038 1.29711L4.10464 1.29774C4.31996 1.45639 4.42161 1.64913 4.42161 1.88101C4.42161 2.2491 4.17095 2.58318 3.60728 2.87568C3.04552 3.16218 2.29655 3.34257 1.35506 3.41194C1.27521 3.41783 1.2366 3.51257 1.28959 3.57259L2.15413 4.55183C2.17787 4.57873 2.2142 4.59084 2.24932 4.58358C2.63495 4.50392 2.91897 4.46558 3.10418 4.46558C3.27753 4.46558 3.50691 4.51599 3.79611 4.62408L3.79806 4.62476C4.081 4.72397 4.28979 4.87513 4.43109 5.07583L4.4317 5.07667C4.57603 5.27701 4.64609 5.48548 4.64609 5.7039C4.64609 6.10126 4.49596 6.40429 4.19747 6.62453C3.88807 6.85281 3.55794 6.9647 3.20481 6.9647C2.65914 6.9647 2.16295 6.73957 1.71374 6.27566C1.26913 5.81117 0.9799 5.2241 0.848623 4.51023C0.840193 4.46439 0.80023 4.4311 0.753619 4.4311H0.360552C0.302719 4.4311 0.25813 4.48205 0.265798 4.53937C0.396977 5.52007 0.762478 6.37418 1.36294 7.09848C1.9669 7.82188 2.69551 8.19102 3.54539 8.19102C4.19581 8.19102 4.73257 8.00446 5.14617 7.625C5.56521 7.24029 5.7731 6.74194 5.7731 6.13866C5.7731 6.07551 5.77039 6.01192 5.765 5.9479C5.75976 5.88586 5.80909 5.8317 5.87135 5.83258C6.27333 5.83824 6.67863 5.78621 7.08699 5.67696C7.15158 5.65969 7.21593 5.7077 7.21593 5.77456V8.87975C7.21593 8.90394 7.22469 8.92731 7.2406 8.94553L8.1293 9.9633C8.14829 9.98504 8.17575 9.99752 8.20463 9.99752H8.52934C8.58457 9.99752 8.62934 9.95275 8.62934 9.89752V1.56724C8.62934 1.51201 8.67411 1.46724 8.72934 1.46724H9.90331C9.95854 1.46724 10.0033 1.42247 10.0033 1.36724V0.310937ZM2.0144 0.330255C1.51073 0.378995 0.992122 0.50399 0.458595 0.705245C0.427134 0.717113 0.395653 0.729252 0.364087 0.74165C0.93094 0.519004 1.48104 0.381871 2.0144 0.330255ZM1.48438 3.49793C2.03489 3.45096 2.5208 3.36488 2.94209 3.23969C2.49 3.37403 1.96351 3.46334 1.36261 3.50762C1.40356 3.5046 1.44413 3.50137 1.48438 3.49793ZM0.37771 4.623C0.372904 4.59116 0.368384 4.55918 0.364087 4.52706C0.450263 5.17131 0.638901 5.7587 0.930004 6.28923C0.653404 5.78515 0.469298 5.22974 0.37771 4.623Z" fill="black"/>
</g>
</svg>
