<svg width="13" height="18" viewBox="0 0 13 18" fill="none" xmlns="http://www.w3.org/2000/svg">
<path d="M3.50649 15.9609V14.625H9.35065V15.9609C9.35065 16.1953 9.28977 16.4062 9.16802 16.5938L8.54708 17.5078C8.30357 17.8359 7.97484 18 7.56088 18H5.29627C4.88231 18 4.55357 17.8359 4.31006 17.5078L3.68912 16.5938C3.56737 16.4062 3.50649 16.1953 3.50649 15.9609ZM6.42857 0C8.20617 0 9.71591 0.609375 10.9578 1.82812C12.224 3.02344 12.8571 4.47656 12.8571 6.1875C12.8571 7.73438 12.3214 9.09375 11.25 10.2656C10.349 11.2734 9.71591 12.3398 9.35065 13.4648C9.35065 13.4883 9.35065 13.5 9.35065 13.5H3.50649C3.50649 13.5 3.50649 13.4883 3.50649 13.4648C3.14123 12.3398 2.50812 11.2734 1.60714 10.2656C0.535714 9.09375 0 7.73438 0 6.1875C0 4.52344 0.608766 3.08203 1.8263 1.86328C3.06818 0.621094 4.60227 0 6.42857 0ZM9.93507 9.14062C10.7143 8.29688 11.1039 7.3125 11.1039 6.1875C11.1039 4.94531 10.6412 3.89062 9.71591 3.02344C8.81493 2.13281 7.71916 1.6875 6.42857 1.6875C5.50325 1.6875 4.67532 1.91016 3.94481 2.35547C3.21429 2.80078 2.6664 3.36328 2.30114 4.04297C1.93588 4.72266 1.75325 5.4375 1.75325 6.1875C1.75325 7.3125 2.14286 8.29688 2.92208 9.14062C3.6039 9.91406 4.20049 10.8047 4.71185 11.8125H8.14529C8.65666 10.8047 9.25325 9.91406 9.93507 9.14062ZM5.84416 2.8125C6.01461 2.8125 6.14854 2.87109 6.24594 2.98828C6.36769 3.08203 6.42857 3.21094 6.42857 3.375C6.42857 3.53906 6.36769 3.67969 6.24594 3.79688C6.14854 3.89062 6.01461 3.9375 5.84416 3.9375C5.35714 3.9375 4.94318 4.10156 4.60227 4.42969C4.26136 4.75781 4.09091 5.15625 4.09091 5.625C4.09091 5.78906 4.03003 5.92969 3.90828 6.04688C3.81088 6.14062 3.67695 6.1875 3.50649 6.1875C3.33604 6.1875 3.18994 6.14062 3.06818 6.04688C2.97078 5.92969 2.92208 5.78906 2.92208 5.625C2.92208 4.85156 3.20211 4.19531 3.76218 3.65625C4.34659 3.09375 5.04058 2.8125 5.84416 2.8125Z" fill="#151618"/>
</svg>
