<svg width="20" height="16" viewBox="0 0 20 16" fill="none" xmlns="http://www.w3.org/2000/svg">
<path d="M18.7181 1.28125C19.5514 2.11458 19.9784 3.125 19.9993 4.3125C20.0201 5.58333 19.593 6.65625 18.7181 7.53125L14.5307 11.7188C13.6766 12.5729 12.635 13 11.4058 13C10.1975 13 9.15592 12.5729 8.28095 11.7188C7.57264 10.9896 7.15599 10.1354 7.03099 9.15625C6.92683 8.15625 7.11433 7.23958 7.59347 6.40625C7.8643 6.13542 8.19762 6 8.59344 6C8.96842 6 9.30175 6.13542 9.5934 6.40625C9.6559 6.48958 9.72881 6.60417 9.81214 6.75L9.7184 6.875C9.23925 7.35417 8.99967 7.92708 8.99967 8.59375C8.99967 9.26042 9.22883 9.83333 9.68715 10.3125C10.1663 10.7708 10.7392 11 11.4058 11C12.0725 11 12.6454 10.7604 13.1245 10.2812L17.2806 6.125C17.7598 5.64583 17.9993 5.07292 17.9993 4.40625C17.9993 3.73958 17.7598 3.17708 17.2806 2.71875C16.8223 2.23958 16.2598 2 15.5932 2C14.9265 2 14.3536 2.23958 13.8745 2.71875L12.687 3.90625C12.5412 3.73958 12.4475 3.63542 12.4058 3.59375C12.0725 3.23958 11.635 2.92708 11.0933 2.65625L12.4683 1.28125C13.3224 0.427083 14.3536 0 15.5619 0C16.7911 0 17.8431 0.427083 18.7181 1.28125ZM7.31223 12.0938C7.45806 12.2604 7.55181 12.3646 7.59347 12.4062C7.9268 12.7604 8.36428 13.0729 8.90593 13.3438L7.53098 14.7188C6.67684 15.5729 5.63521 16 4.40609 16C3.1978 16 2.15617 15.5625 1.2812 14.6875C0.427068 13.8333 0 12.8021 0 11.5938C0 10.3646 0.427068 9.32292 1.2812 8.46875L5.46855 4.28125C6.32269 3.42708 7.3539 3 8.56219 3C9.79131 3 10.8434 3.42708 11.7183 4.28125C12.4266 5.01042 12.8329 5.875 12.937 6.875C13.062 7.85417 12.8849 8.76042 12.4058 9.59375C12.135 9.86458 11.8017 10 11.4058 10C11.0308 10 10.6975 9.86458 10.4059 9.59375C10.3434 9.51042 10.2705 9.39583 10.1871 9.25L10.2809 9.125C10.76 8.64583 10.9996 8.07292 10.9996 7.40625C10.9996 6.73958 10.76 6.17708 10.2809 5.71875C9.82256 5.23958 9.26008 5 8.59344 5C7.9268 5 7.3539 5.23958 6.87475 5.71875L2.71865 9.875C2.2395 10.3542 1.99993 10.9271 1.99993 11.5938C1.99993 12.2604 2.22909 12.8333 2.6874 13.3125C3.16655 13.7708 3.73945 14 4.40609 14C5.07273 14 5.64563 13.7604 6.12478 13.2812L7.31223 12.0938Z" fill="#151618"/>
</svg>
