<svg width="25" height="23" viewBox="0 0 25 23" fill="none" xmlns="http://www.w3.org/2000/svg">
<path opacity="0.6" fill-rule="evenodd" clip-rule="evenodd" d="M22.401 8.07099C22.6997 8.07099 22.9503 8.19075 23.1599 8.43748L23.1691 8.44723C23.4019 8.66929 23.5149 8.93492 23.5149 9.25154V19.7454C23.5149 20.062 23.4014 20.3271 23.1686 20.5491L23.1599 20.5594C22.9503 20.8062 22.6997 20.9259 22.401 20.9259H17.4505C17.1512 20.9259 16.8853 20.8055 16.6485 20.5544C16.4402 20.3337 16.3366 20.0667 16.3366 19.7454V9.25154C16.3366 8.93024 16.4402 8.66325 16.6485 8.44248C16.8853 8.19142 17.1512 8.07099 17.4505 8.07099H22.401ZM0 14.4985C0 15.2428 0.244354 15.8899 0.73008 16.4333L0.732412 16.4358C1.24564 16.9798 1.8702 17.2531 2.59901 17.2531H13.1188C13.3239 17.2531 13.5002 17.1902 13.6318 17.0507C13.7836 16.8897 13.8614 16.6925 13.8614 16.466C13.8614 16.2442 13.7863 16.0579 13.6322 15.9219C13.5039 15.7586 13.3281 15.679 13.1188 15.679H2.59901C2.29763 15.679 2.03191 15.5704 1.79711 15.3484C1.6168 15.1341 1.51575 14.8956 1.49112 14.6296H13.1188C13.3239 14.6296 13.5002 14.5667 13.6318 14.4272C13.7836 14.2663 13.8614 14.0691 13.8614 13.8426C13.8614 13.6207 13.7863 13.4345 13.6322 13.2985C13.5039 13.1352 13.3281 13.0556 13.1188 13.0556H3.9604V2.75463C3.9604 2.43333 4.06393 2.16634 4.27223 1.94557C4.5091 1.69451 4.77494 1.57407 5.07426 1.57407H17.4505C17.7492 1.57407 17.9993 1.69432 18.2089 1.94105L18.2186 1.95032C18.4514 2.17238 18.5644 2.438 18.5644 2.75463V3.41049C18.5644 3.62861 18.6238 3.82223 18.7462 3.98433L18.7548 3.99572L18.7655 4.00482C18.9185 4.13451 19.1011 4.19753 19.3069 4.19753C19.512 4.19753 19.6883 4.13462 19.8199 3.99514C19.9717 3.83419 20.0495 3.63697 20.0495 3.41049V2.75463C20.0495 2.00804 19.7907 1.36016 19.2784 0.817258C18.7662 0.274353 18.1549 0 17.4505 0H5.07426C4.36985 0 3.75857 0.274353 3.24634 0.817258C2.7341 1.36016 2.47525 2.00804 2.47525 2.75463V13.0556H0.742574C0.528891 13.0556 0.342816 13.138 0.190952 13.2989C0.0593548 13.4384 0 13.6253 0 13.8426V14.4985ZM24.2289 7.31417C23.7167 6.77127 23.1054 6.49691 22.401 6.49691H17.4505C16.7461 6.49691 16.1348 6.77127 15.6226 7.31417C15.1103 7.85708 14.8515 8.50495 14.8515 9.25154V19.7454C14.8515 20.492 15.1103 21.1398 15.6226 21.6827C16.1348 22.2256 16.7461 22.5 17.4505 22.5H22.401C23.1054 22.5 23.7167 22.2256 24.2289 21.6827C24.7411 21.1398 25 20.492 25 19.7454V9.25154C25 8.50495 24.7411 7.85708 24.2289 7.31417ZM13.4945 6.21077C13.3865 6.11105 13.2561 6.05445 13.119 6.03175L11.4277 5.77832L10.6799 4.18571L10.6791 4.1839C10.6196 4.05921 10.5321 3.94584 10.4081 3.86512C10.2832 3.7838 10.1432 3.75 10.0031 3.75C9.86295 3.75 9.723 3.7838 9.59807 3.86512C9.47406 3.94584 9.38656 4.05921 9.32711 4.18389L8.57845 5.77832L6.89232 6.03089L6.88714 6.03175C6.75041 6.05439 6.62158 6.1103 6.51339 6.2063C6.40662 6.30105 6.33544 6.42062 6.29071 6.54793L6.28625 6.56275C6.24583 6.69701 6.23601 6.84012 6.27323 6.98322C6.31005 7.12484 6.38712 7.24409 6.48578 7.34144L7.70869 8.58764L7.4197 10.3575C7.39292 10.5026 7.40399 10.6534 7.46987 10.7957C7.52826 10.9302 7.62019 11.0449 7.74641 11.1276C7.866 11.206 8.00233 11.25 8.14916 11.25C8.27716 11.25 8.3986 11.2163 8.50788 11.1524L10.0031 10.3384L11.4983 11.1524C11.6076 11.2163 11.729 11.25 11.857 11.25C12.084 11.25 12.2766 11.1506 12.4194 10.9859C12.575 10.8063 12.6286 10.5856 12.5865 10.3575L12.2975 8.58763L13.5204 7.34143C13.6205 7.24263 13.6982 7.1203 13.732 6.9742C13.7654 6.82961 13.75 6.68701 13.705 6.5554C13.6656 6.42838 13.5992 6.30738 13.4945 6.21077ZM10.9586 8.40158L11.1368 9.45761L10.2607 8.97485C10.1883 8.93276 10.1011 8.90359 10.0031 8.90359C9.90509 8.90359 9.8179 8.93276 9.74549 8.97486L8.86937 9.45761L9.04467 8.42241L9.04689 8.40151C9.06481 8.23237 9.01788 8.06346 8.89114 7.93055L8.14948 7.17732L9.1481 7.02542C9.32059 7.00326 9.48454 6.90674 9.5651 6.7205L10.0031 5.79407L10.4411 6.72051C10.5216 6.90674 10.6856 7.00326 10.8581 7.02542L11.8567 7.17732L11.1188 7.92662L11.1151 7.93058C10.9883 8.06349 10.9407 8.23244 10.9586 8.40158Z" fill="black"/>
</svg>
