<svg width="22" height="17" viewBox="0 0 22 17" fill="none" xmlns="http://www.w3.org/2000/svg">
<path d="M21.8854 7.85491C21.9618 8.05729 22 8.27232 22 8.5C22 8.72768 21.9618 8.94271 21.8854 9.14509C20.816 11.5231 19.3137 13.433 17.3785 14.875C15.4433 16.2917 13.3171 17 11 17C8.68287 17 6.55671 16.2917 4.62153 14.875C2.68634 13.433 1.18403 11.5231 0.114583 9.14509C0.0381944 8.94271 0 8.72768 0 8.5C0 8.27232 0.0381944 8.05729 0.114583 7.85491C1.18403 5.47693 2.68634 3.57961 4.62153 2.16295C6.55671 0.720982 8.68287 0 11 0C13.3171 0 15.4433 0.720982 17.3785 2.16295C19.3137 3.57961 20.816 5.47693 21.8854 7.85491ZM5.69097 13.3951C7.3206 14.5841 9.09028 15.1786 11 15.1786C12.9097 15.1786 14.6794 14.5841 16.309 13.3951C17.9387 12.1808 19.2245 10.5491 20.1667 8.5C19.2245 6.45089 17.9387 4.83185 16.309 3.64286C14.6794 2.42857 12.9097 1.82143 11 1.82143C9.09028 1.82143 7.3206 2.42857 5.69097 3.64286C4.06134 4.83185 2.77546 6.45089 1.83333 8.5C2.77546 10.5491 4.06134 12.1808 5.69097 13.3951ZM7.52431 5.08482C8.4919 4.12351 9.65046 3.64286 11 3.64286C12.3495 3.64286 13.4954 4.12351 14.4375 5.08482C15.4051 6.02083 15.8889 7.15923 15.8889 8.5C15.8889 9.38542 15.6725 10.2076 15.2396 10.9665C14.8067 11.7001 14.2083 12.282 13.4444 12.7121C12.706 13.1421 11.8912 13.3571 11 13.3571C9.65046 13.3571 8.4919 12.8891 7.52431 11.9531C6.58218 10.9918 6.11111 9.84077 6.11111 8.5C6.11111 7.15923 6.58218 6.02083 7.52431 5.08482ZM8.82292 10.6629C9.43403 11.2448 10.1597 11.5357 11 11.5357C11.8403 11.5357 12.5532 11.2448 13.1389 10.6629C13.75 10.0558 14.0556 9.33482 14.0556 8.5C14.0556 7.94345 13.9155 7.4375 13.6354 6.98214C13.3808 6.50149 13.0116 6.13467 12.5278 5.8817C12.0694 5.60342 11.5602 5.46429 11 5.46429C11 5.46429 10.9873 5.46429 10.9618 5.46429C10.9363 5.46429 10.9236 5.46429 10.9236 5.46429C10.9745 5.69196 11 5.89435 11 6.07143C11 6.75446 10.7581 7.33631 10.2743 7.81696C9.81597 8.27232 9.24306 8.5 8.55556 8.5C8.37731 8.5 8.17361 8.4747 7.94444 8.42411C7.94444 8.42411 7.94444 8.43676 7.94444 8.46205C7.94444 8.48735 7.94444 8.5 7.94444 8.5C7.94444 9.33482 8.23727 10.0558 8.82292 10.6629Z" fill="#151618"/>
</svg>
