<svg width="19" height="20" viewBox="0 0 19 20" fill="none" xmlns="http://www.w3.org/2000/svg">
<path d="M19 1.03448V7.93103C19 8.21839 18.9045 8.46264 18.7134 8.66379C18.5223 8.86494 18.2902 8.96552 18.0172 8.96552H11.4655C11.1925 8.96552 10.9605 8.86494 10.7694 8.66379C10.5783 8.46264 10.4828 8.21839 10.4828 7.93103C10.4828 7.64368 10.5783 7.39943 10.7694 7.19828C10.9605 6.99713 11.1925 6.89655 11.4655 6.89655H15.5603C15.1782 6.06322 14.6595 5.34483 14.0043 4.74138C13.3491 4.1092 12.5984 3.62069 11.7522 3.27586C10.9332 2.93103 10.0733 2.75862 9.17241 2.75862C7.1796 2.75862 5.47342 3.50575 4.05388 5C2.66164 6.46552 1.96552 8.24713 1.96552 10.3448C1.96552 12.4425 2.66164 14.2385 4.05388 15.7328C5.47342 17.1983 7.1796 17.931 9.17241 17.931C10.9195 17.931 12.4619 17.342 13.7996 16.1638C13.9907 15.9914 14.2227 15.9195 14.4957 15.9483C14.7687 15.977 14.9871 16.1063 15.1509 16.3362C15.342 16.5374 15.4239 16.7816 15.3966 17.069C15.3693 17.3563 15.2464 17.5862 15.028 17.7586C13.3355 19.2529 11.3836 20 9.17241 20C6.63362 20 4.46336 19.0661 2.66164 17.1983C0.887213 15.3017 0 13.0172 0 10.3448C0 7.67241 0.887213 5.4023 2.66164 3.53448C4.46336 1.63793 6.63362 0.689655 9.17241 0.689655C10.783 0.689655 12.2845 1.12069 13.6767 1.98276C15.0963 2.84483 16.2155 3.99425 17.0345 5.43103V1.03448C17.0345 0.747126 17.13 0.502874 17.3211 0.301724C17.5122 0.100575 17.7443 0 18.0172 0C18.2902 0 18.5223 0.100575 18.7134 0.301724C18.9045 0.502874 19 0.747126 19 1.03448Z" fill="#151618"/>
</svg>
