<svg width="120" height="28" viewBox="0 0 120 28" fill="none" xmlns="http://www.w3.org/2000/svg">
<path d="M37.8899 4.23053C37.444 2.56444 36.1346 1.25514 34.4685 0.809151C31.4518 2.42209e-07 19.3495 0 19.3495 0C19.3495 0 7.24731 2.42209e-07 4.23051 0.809151C2.56444 1.25514 1.25514 2.56444 0.809151 4.23053C2.42209e-07 7.24731 0 13.5453 0 13.5453C0 13.5453 2.42209e-07 19.8433 0.809151 22.8602C1.25514 24.5262 2.56444 25.8355 4.23051 26.2814C7.24731 27.0906 19.3495 27.0906 19.3495 27.0906C19.3495 27.0906 31.4518 27.0906 34.4685 26.2814C36.1346 25.8355 37.444 24.5262 37.8899 22.8602C38.6991 19.8433 38.6991 13.5453 38.6991 13.5453C38.6991 13.5453 38.6959 7.24731 37.8899 4.23053Z" fill="#FF0000"/>
<path d="M15.4762 19.3496L25.5301 13.5455L15.4762 7.74121V19.3496Z" fill="white"/>
<path d="M49.5804 17.6783L45.4721 2.84131H49.0563L50.4961 9.56703C50.8635 11.2236 51.1315 12.6362 51.3062 13.8049H51.4116C51.5321 12.9675 51.8033 11.564 52.2219 9.59113L53.7128 2.84131H57.297L53.1375 17.6783V24.7956H49.5774V17.6783H49.5804Z" fill="white"/>
<path d="M58.3758 24.3274C57.653 23.8395 57.1379 23.0804 56.8306 22.0504C56.5265 21.0203 56.3729 19.6529 56.3729 17.942V15.6137C56.3729 13.8879 56.5476 12.4994 56.897 11.4543C57.2463 10.4091 57.7915 9.64408 58.5324 9.16517C59.2734 8.68627 60.2462 8.44531 61.4511 8.44531C62.6378 8.44531 63.5865 8.68928 64.3033 9.17723C65.0172 9.66516 65.5412 10.4302 65.8725 11.4663C66.2039 12.5054 66.3696 13.8879 66.3696 15.6137V17.942C66.3696 19.6529 66.2069 21.0263 65.8847 22.0624C65.5624 23.1015 65.0383 23.8606 64.3154 24.3395C63.5925 24.8184 62.6106 25.0593 61.3727 25.0593C60.0956 25.0623 59.0987 24.8154 58.3758 24.3274ZM62.4299 21.8155C62.6287 21.2914 62.7311 20.439 62.7311 19.2523V14.2554C62.7311 13.1048 62.6318 12.2615 62.4299 11.7314C62.2281 11.1983 61.8758 10.9332 61.3696 10.9332C60.8818 10.9332 60.5354 11.1983 60.3366 11.7314C60.1348 12.2645 60.0354 13.1048 60.0354 14.2554V19.2523C60.0354 20.439 60.1317 21.2944 60.3246 21.8155C60.5173 22.3395 60.8636 22.6016 61.3696 22.6016C61.8758 22.6016 62.2281 22.3395 62.4299 21.8155Z" fill="white"/>
<path d="M78.029 24.7989H75.2038L74.8905 22.8351H74.8123C74.0441 24.317 72.8936 25.0579 71.3575 25.0579C70.2943 25.0579 69.5082 24.7085 69.0022 24.0128C68.4962 23.314 68.2431 22.2237 68.2431 20.7418V8.75716H71.8545V20.5309C71.8545 21.2478 71.9328 21.7568 72.0894 22.0611C72.2461 22.3652 72.5081 22.5188 72.8755 22.5188C73.1888 22.5188 73.49 22.4225 73.7792 22.2297C74.0683 22.0369 74.2791 21.7929 74.4207 21.4978V8.75415H78.029V24.7989Z" fill="white"/>
<path d="M87.8384 5.74485H84.2542V24.7955H80.7211V5.74485H77.1369V2.84131H87.8384V5.74485Z" fill="white"/>
<path d="M96.5487 24.7989H93.7235L93.4102 22.8351H93.3319C92.5639 24.317 91.4133 25.0579 89.8772 25.0579C88.8139 25.0579 88.0278 24.7085 87.5218 24.0128C87.0158 23.314 86.7628 22.2237 86.7628 20.7418V8.75716H90.3742V20.5309C90.3742 21.2478 90.4524 21.7568 90.6091 22.0611C90.7657 22.3652 91.0277 22.5188 91.3953 22.5188C91.7084 22.5188 92.0096 22.4225 92.2988 22.2297C92.588 22.0369 92.7988 21.7929 92.9403 21.4978V8.75415H96.5487V24.7989Z" fill="white"/>
<path d="M108.501 11.3206C108.281 10.3086 107.928 9.57672 107.441 9.12191C106.953 8.66711 106.281 8.44121 105.426 8.44121C104.763 8.44121 104.142 8.62795 103.567 9.00444C102.992 9.38094 102.546 9.87189 102.233 10.4833H102.206V2.03174H98.727V24.7962H101.709L102.076 23.2782H102.155C102.435 23.8203 102.853 24.245 103.411 24.5613C103.968 24.8746 104.588 25.0312 105.269 25.0312C106.489 25.0312 107.389 24.4679 107.965 23.3444C108.54 22.2179 108.829 20.4619 108.829 18.0705V15.5314C108.829 13.7393 108.718 12.3327 108.501 11.3206ZM105.191 17.8656C105.191 19.0342 105.142 19.9499 105.046 20.6126C104.95 21.2752 104.79 21.7481 104.561 22.0252C104.335 22.3052 104.028 22.4438 103.645 22.4438C103.347 22.4438 103.073 22.3745 102.82 22.233C102.567 22.0944 102.362 21.8836 102.206 21.6065V12.5013C102.326 12.0646 102.537 11.7092 102.835 11.4291C103.13 11.149 103.456 11.0104 103.802 11.0104C104.17 11.0104 104.453 11.155 104.652 11.4411C104.853 11.7303 104.992 12.2122 105.07 12.8929C105.148 13.5736 105.188 14.5404 105.188 15.7964V17.8656H105.191Z" fill="white"/>
<path d="M113.952 18.7903C113.952 19.8203 113.982 20.5914 114.042 21.1065C114.103 21.6215 114.229 21.9951 114.422 22.233C114.615 22.4679 114.91 22.5853 115.31 22.5853C115.85 22.5853 116.223 22.3745 116.422 21.9559C116.624 21.5372 116.732 20.8385 116.75 19.8626L119.865 20.0462C119.883 20.1848 119.892 20.3776 119.892 20.6215C119.892 22.1034 119.485 23.2119 118.675 23.9438C117.865 24.6757 116.717 25.0431 115.235 25.0431C113.455 25.0431 112.208 24.4859 111.494 23.3685C110.777 22.2511 110.422 20.5252 110.422 18.1878V15.3867C110.422 12.9802 110.792 11.2212 111.533 10.1128C112.274 9.0044 113.542 8.4502 115.34 8.4502C116.578 8.4502 117.53 8.6761 118.193 9.13091C118.855 9.58571 119.322 10.2905 119.593 11.2513C119.865 12.2121 120 13.5374 120 15.2301V17.977H113.952V18.7903ZM114.41 11.2303C114.226 11.4561 114.106 11.8266 114.042 12.3417C113.982 12.8567 113.952 13.6368 113.952 14.685V15.8356H116.593V14.685C116.593 13.6549 116.557 12.8748 116.488 12.3417C116.419 11.8085 116.292 11.4351 116.108 11.2152C115.925 10.9983 115.642 10.8869 115.259 10.8869C114.874 10.8899 114.59 11.0043 114.41 11.2303Z" fill="white"/>
</svg>
