<svg width="18" height="18" viewBox="0 0 18 18" fill="none" xmlns="http://www.w3.org/2000/svg">
<path d="M17.7539 16.5586C17.918 16.7227 18 16.9219 18 17.1562C18 17.3906 17.918 17.5898 17.7539 17.7539C17.5898 17.918 17.3906 18 17.1562 18C16.9219 18 16.7227 17.918 16.5586 17.7539L11.8477 13.043C10.5117 14.0977 9 14.625 7.3125 14.625C5.29688 14.625 3.57422 13.9102 2.14453 12.4805C0.714844 11.0508 0 9.32812 0 7.3125C0 5.29688 0.714844 3.57422 2.14453 2.14453C3.57422 0.714844 5.29688 0 7.3125 0C9.32812 0 11.0508 0.714844 12.4805 2.14453C13.9102 3.57422 14.625 5.29688 14.625 7.3125C14.625 9 14.0977 10.5117 13.043 11.8477L17.7539 16.5586ZM3.33984 11.2852C4.44141 12.3867 5.76562 12.9375 7.3125 12.9375C8.85938 12.9375 10.1836 12.3867 11.2852 11.2852C12.3867 10.1836 12.9375 8.85938 12.9375 7.3125C12.9375 5.76562 12.3867 4.44141 11.2852 3.33984C10.1836 2.23828 8.85938 1.6875 7.3125 1.6875C5.76562 1.6875 4.44141 2.23828 3.33984 3.33984C2.23828 4.44141 1.6875 5.76562 1.6875 7.3125C1.6875 8.85938 2.23828 10.1836 3.33984 11.2852ZM10.125 6.46875C10.3594 6.46875 10.5586 6.55078 10.7227 6.71484C10.8867 6.87891 10.9688 7.07812 10.9688 7.3125C10.9688 7.54688 10.8867 7.74609 10.7227 7.91016C10.5586 8.07422 10.3594 8.15625 10.125 8.15625H8.15625V10.125C8.15625 10.3594 8.07422 10.5586 7.91016 10.7227C7.74609 10.8867 7.54688 10.9688 7.3125 10.9688C7.07812 10.9688 6.87891 10.8867 6.71484 10.7227C6.55078 10.5586 6.46875 10.3594 6.46875 10.125V8.15625H4.5C4.26562 8.15625 4.06641 8.07422 3.90234 7.91016C3.73828 7.74609 3.65625 7.54688 3.65625 7.3125C3.65625 7.07812 3.73828 6.87891 3.90234 6.71484C4.06641 6.55078 4.26562 6.46875 4.5 6.46875H6.46875V4.5C6.46875 4.26562 6.55078 4.06641 6.71484 3.90234C6.87891 3.73828 7.07812 3.65625 7.3125 3.65625C7.54688 3.65625 7.74609 3.73828 7.91016 3.90234C8.07422 4.06641 8.15625 4.26562 8.15625 4.5V6.46875H10.125Z" fill="#151618"/>
</svg>
